<?xml version="1.0" encoding="UTF-8"?>
<svg xmlns="http://www.w3.org/2000/svg" viewBox="0 0 764.54 842.59">
  <defs>
    <style>
      .cls-1 {
        fill: #75c7ec;
      }

      .cls-2 {
        fill: none;
        stroke: #75c7ec;
        stroke-miterlimit: 10;
        stroke-width: 80px;
      }
    </style>
  </defs>
  <g id="layer1">
    <path class="cls-2" d="M724.54,566.94v-291.29c0-32.15-17.15-61.87-45-77.94L427.27,52.06c-27.85-16.08-62.15-16.08-90,0L85,197.7c-27.85,16.08-45,45.79-45,77.94v291.29c0,32.15,17.15,61.87,45,77.94l252.27,145.65c27.85,16.08,62.15,16.08,90,0l252.27-145.65c27.85-16.08,45-45.79,45-77.94Z"/>
  </g>
  <g id="layer2">
    <path class="cls-1" d="M610.38,529.9v-217.22c0-14.29-7.62-27.5-20-34.64l-188.12-108.61c-12.38-7.15-27.62-7.15-40,0l-188.12,108.61c-12.38,7.15-20,20.35-20,34.64v217.22c0,14.29,7.62,27.5,20,34.64l188.12,108.61c12.38,7.15,27.62,7.15,40,0l188.12-108.61c12.38-7.15,20-20.35,20-34.64Z"/>
  </g>
</svg>